<svg width="18" height="18" viewBox="0 0 18 18" fill="none" xmlns="http://www.w3.org/2000/svg">
<path d="M12.7728 9.39804L7.14779 15.023C7.09553 15.0753 7.03349 15.1168 6.9652 15.145C6.89692 15.1733 6.82373 15.1879 6.74982 15.1879C6.67591 15.1879 6.60273 15.1733 6.53445 15.145C6.46616 15.1168 6.40412 15.0753 6.35186 15.023C6.29959 14.9708 6.25814 14.9087 6.22985 14.8404C6.20157 14.7722 6.18701 14.699 6.18701 14.6251C6.18701 14.5512 6.20157 14.478 6.22985 14.4097C6.25814 14.3414 6.29959 14.2794 6.35186 14.2271L11.5796 9.00007L6.35186 3.77304C6.24631 3.66749 6.18701 3.52434 6.18701 3.37507C6.18701 3.2258 6.24631 3.08265 6.35186 2.9771C6.4574 2.87155 6.60056 2.81226 6.74982 2.81226C6.89909 2.81226 7.04225 2.87155 7.14779 2.9771L12.7728 8.6021C12.8251 8.65434 12.8666 8.71638 12.8949 8.78466C12.9232 8.85295 12.9378 8.92615 12.9378 9.00007C12.9378 9.07399 12.9232 9.14719 12.8949 9.21547C12.8666 9.28376 12.8251 9.3458 12.7728 9.39804Z" fill="black"/>
</svg>
