<svg width="18" height="18" viewBox="0 0 18 18" fill="none" xmlns="http://www.w3.org/2000/svg">
<path d="M5.22721 9.39804L10.8522 15.023C10.9045 15.0753 10.9665 15.1168 11.0348 15.145C11.1031 15.1733 11.1763 15.1879 11.2502 15.1879C11.3241 15.1879 11.3973 15.1733 11.4656 15.145C11.5338 15.1168 11.5959 15.0753 11.6481 15.023C11.7004 14.9708 11.7419 14.9087 11.7701 14.8404C11.7984 14.7722 11.813 14.699 11.813 14.6251C11.813 14.5512 11.7984 14.478 11.7701 14.4097C11.7419 14.3414 11.7004 14.2794 11.6481 14.2271L6.42041 9.00007L11.6481 3.77304C11.7537 3.66749 11.813 3.52434 11.813 3.37507C11.813 3.2258 11.7537 3.08265 11.6481 2.9771C11.5426 2.87155 11.3994 2.81226 11.2502 2.81226C11.1009 2.81226 10.9578 2.87155 10.8522 2.9771L5.22721 8.6021C5.17491 8.65434 5.13342 8.71638 5.10511 8.78466C5.0768 8.85295 5.06223 8.92615 5.06223 9.00007C5.06223 9.07399 5.0768 9.14719 5.10511 9.21547C5.13342 9.28376 5.17491 9.3458 5.22721 9.39804Z" fill="black"/>
</svg>
